<svg width="3636" height="758" viewBox="0 0 3636 758" fill="none" xmlns="http://www.w3.org/2000/svg">
<rect width="1804" height="758" rx="40" fill="white"/>
<path fill-rule="evenodd" clip-rule="evenodd" d="M1524.71 382.712C1524.76 382.639 1524.82 382.582 1524.9 382.55C1527.01 381.65 1529.2 380.783 1531.47 379.95C1557.87 370.27 1578.49 349.39 1582.26 320.46C1583.88 308.007 1583.65 296.587 1581.57 286.2C1574.46 250.6 1543.72 230.71 1509.72 224.9C1493.78 222.173 1480.37 220.803 1469.49 220.79C1423.7 220.717 1377.86 220.713 1331.99 220.78C1331.66 220.78 1331.5 220.94 1331.5 221.26V560.76C1331.5 561.247 1331.74 561.49 1332.22 561.49C1378.67 561.543 1425.1 561.507 1471.5 561.38C1492.95 561.32 1512.37 558.603 1529.76 553.23C1560.42 543.76 1589.25 522.35 1596.62 489.73C1608.5 437.12 1579.3 390.51 1525 383.28C1524.92 383.271 1524.84 383.233 1524.78 383.174C1524.72 383.115 1524.68 383.038 1524.67 382.954C1524.65 382.87 1524.67 382.785 1524.71 382.712ZM1504.77 335.53C1511.46 321.19 1508.32 301.41 1493.9 292.82C1483.1 286.39 1469.6 284.35 1456.74 284.27C1444.65 284.197 1428.15 284.203 1407.23 284.29C1406.91 284.29 1406.75 284.45 1406.75 284.77V356.23C1406.75 356.543 1406.91 356.7 1407.22 356.7C1425.49 356.787 1443.74 356.817 1461.99 356.79C1478.41 356.76 1497.67 350.75 1504.77 335.53ZM1472 497.79C1500.19 497.77 1526.68 485.49 1523.5 452.74C1521.34 430.45 1497.1 423.5 1478.83 421.31C1474.83 420.83 1468.76 420.573 1460.62 420.54C1442.85 420.453 1425.05 420.45 1407.23 420.53C1406.91 420.537 1406.75 420.7 1406.75 421.02V497.23C1406.75 497.55 1406.91 497.71 1407.24 497.71C1428.83 497.777 1450.41 497.803 1472 497.79Z" fill="#F88379"/>
<path d="M1001.67 277.93C1030.21 212.22 1120.12 200.97 1179.46 221.29C1203.95 229.677 1223.49 244.527 1238.09 265.84C1238.23 266.044 1238.29 266.293 1238.26 266.54C1238.23 266.787 1238.11 267.015 1237.92 267.18L1190.87 308.11C1190.62 308.33 1190.39 308.313 1190.17 308.06C1187.92 305.493 1185.67 303.003 1183.4 300.59C1170.86 287.23 1155.57 278.75 1137.52 275.15C1125.99 272.843 1114.98 272.29 1104.49 273.49C1087.15 275.48 1072.66 287.41 1068.76 304.5C1063.96 325.52 1081.29 337.84 1098.52 344.46C1109.79 348.793 1119.04 351.95 1126.27 353.93C1161.75 363.64 1206.49 373.32 1230.39 404.23C1243.74 421.5 1247.89 441.22 1246.9 462.75C1245.03 503.07 1220.07 535.77 1183.71 552.39C1153.15 566.35 1119.62 568.97 1086.5 565.52C1042.64 560.96 1004.36 542.46 979.61 504.7C979.277 504.193 979.34 503.743 979.8 503.35L1030.25 460.19C1030.62 459.877 1030.95 459.913 1031.24 460.3C1047.12 481.313 1067.04 495.26 1091.01 502.14C1109.55 507.46 1135 508.36 1152.48 499.63C1164.62 493.57 1172.28 483.69 1172.56 469.83C1173.11 442.9 1152.49 434.84 1130.63 428.24C1117.52 424.28 1104.4 420.35 1091.27 416.45C1049.42 404.02 1001.45 381.27 994.34 332.21C991.627 313.51 994.07 295.417 1001.67 277.93Z" fill="#F88379"/>
<path d="M860.25 257.48V221.25C860.25 220.917 860.417 220.75 860.75 220.75H911.5C911.833 220.75 912 220.917 912 221.25V332.25C912 332.583 911.833 332.75 911.5 332.75H854.76C854.427 332.75 854.223 332.587 854.15 332.26C845.75 293.93 820.99 267.52 780.74 264.12C767.187 262.973 754.87 263.66 743.79 266.18C694.96 277.3 672.11 321.47 667.75 367.75C661.97 429.2 678.31 505.66 753.26 514.22C804.95 520.13 848.06 496.49 855.71 441.98C855.75 441.66 855.933 441.5 856.26 441.5H917.73C918.05 441.5 918.193 441.66 918.16 441.98C911.76 498.15 879.91 542.45 824.47 559C794.18 568.04 761.66 569 730.75 563.96C646.61 550.26 602.86 485.61 599.42 404C597.71 363.23 603.78 321.52 625.8 286.42C659.98 231.94 715.98 206.91 781.25 213.05C812.84 216.03 842.98 229.04 859.84 257.59C860.113 258.05 860.25 258.013 860.25 257.48Z" fill="#F88379"/>
<path d="M239.96 267.75H206.75C206.417 267.75 206.25 267.583 206.25 267.25V221.25C206.25 220.917 206.417 220.75 206.75 220.75H341.5C341.833 220.75 342 220.917 342 221.25V267.25C342 267.583 341.833 267.75 341.5 267.75H304.77C304.43 267.75 304.26 267.92 304.26 268.26C304.207 323.067 304.26 377.857 304.42 432.63C304.467 446.737 306.077 459.693 309.25 471.5C315.65 495.24 330.75 509.47 354.78 513.8C368.073 516.2 381.493 516.287 395.04 514.06C419.813 509.973 435.68 496.01 442.64 472.17C446.567 458.73 448.55 444.527 448.59 429.56C448.757 375.793 448.803 322.023 448.73 268.25C448.73 267.917 448.563 267.75 448.23 267.75H411.5C411.167 267.75 411 267.583 411 267.25V221.25C411 220.917 411.167 220.75 411.5 220.75H546.25C546.583 220.75 546.75 220.917 546.75 221.25V267.25C546.75 267.583 546.583 267.75 546.25 267.75H513.02C512.673 267.75 512.5 267.923 512.5 268.27C512.513 322.577 512.51 376.903 512.49 431.25C512.48 455.67 507.89 481.34 496.98 503.43C476.65 544.61 436.41 562.85 392.48 566.15C359.31 568.65 323.25 565.26 294.56 547.58C254.37 522.82 240.76 478.83 240.7 433.75C240.613 378.577 240.523 323.4 240.43 268.22C240.43 267.907 240.273 267.75 239.96 267.75Z" fill="#F88379"/>
<path d="M2245.5 293.5C2235.5 280.5 2222.83 270.5 2207.5 263.5C2192.17 256.5 2176.33 253 2160 253C2140 253 2121.83 256.833 2105.5 264.5C2089.5 271.833 2075.67 282 2064 295C2052.67 308 2043.83 323.333 2037.5 341C2031.17 358.333 2028 377 2028 397C2028 415.667 2031 433.333 2037 450C2043 466.667 2051.67 481.333 2063 494C2074.33 506.667 2088.17 516.667 2104.5 524C2120.83 531.333 2139.33 535 2160 535C2180.33 535 2198.17 530.833 2213.5 522.5C2228.83 514.167 2241.83 502.5 2252.5 487.5L2293 518C2290.33 521.667 2285.67 527 2279 534C2272.33 540.667 2263.5 547.5 2252.5 554.5C2241.5 561.167 2228.17 567 2212.5 572C2197.17 577.333 2179.33 580 2159 580C2131 580 2105.67 574.667 2083 564C2060.67 553.333 2041.5 539.333 2025.5 522C2009.83 504.667 1997.83 485.167 1989.5 463.5C1981.17 441.5 1977 419.333 1977 397C1977 369.667 1981.5 344.5 1990.5 321.5C1999.5 298.167 2012 278.167 2028 261.5C2044.33 244.5 2063.83 231.333 2086.5 222C2109.17 212.667 2134.17 208 2161.5 208C2184.83 208 2207.67 212.5 2230 221.5C2252.67 230.5 2271.17 244.333 2285.5 263L2245.5 293.5Z" fill="white"/>
<path d="M2513.55 580C2486.55 580 2461.72 575.333 2439.05 566C2416.38 556.333 2396.88 543.167 2380.55 526.5C2364.55 509.833 2351.88 490.167 2342.55 467.5C2333.55 444.833 2329.05 420.333 2329.05 394C2329.05 367.667 2333.55 343.167 2342.55 320.5C2351.88 297.833 2364.55 278.167 2380.55 261.5C2396.88 244.833 2416.38 231.833 2439.05 222.5C2461.72 212.833 2486.55 208 2513.55 208C2540.55 208 2565.38 212.833 2588.05 222.5C2610.72 231.833 2630.05 244.833 2646.05 261.5C2662.38 278.167 2675.05 297.833 2684.05 320.5C2693.38 343.167 2698.05 367.667 2698.05 394C2698.05 420.333 2693.38 444.833 2684.05 467.5C2675.05 490.167 2662.38 509.833 2646.05 526.5C2630.05 543.167 2610.72 556.333 2588.05 566C2565.38 575.333 2540.55 580 2513.55 580ZM2513.55 535C2533.88 535 2552.22 531.333 2568.55 524C2584.88 516.333 2598.88 506.167 2610.55 493.5C2622.22 480.833 2631.22 466 2637.55 449C2643.88 431.667 2647.05 413.333 2647.05 394C2647.05 374.667 2643.88 356.5 2637.55 339.5C2631.22 322.167 2622.22 307.167 2610.55 294.5C2598.88 281.833 2584.88 271.833 2568.55 264.5C2552.22 256.833 2533.88 253 2513.55 253C2493.22 253 2474.88 256.833 2458.55 264.5C2442.22 271.833 2428.22 281.833 2416.55 294.5C2404.88 307.167 2395.88 322.167 2389.55 339.5C2383.22 356.5 2380.05 374.667 2380.05 394C2380.05 413.333 2383.22 431.667 2389.55 449C2395.88 466 2404.88 480.833 2416.55 493.5C2428.22 506.167 2442.22 516.333 2458.55 524C2474.88 531.333 2493.22 535 2513.55 535Z" fill="white"/>
<path d="M2767.07 217H2891.57C2914.23 217 2932.9 220.167 2947.57 226.5C2962.23 232.5 2973.73 240.333 2982.07 250C2990.73 259.333 2996.73 270 3000.07 282C3003.4 293.667 3005.07 305 3005.07 316C3005.07 327.333 3003.07 338.333 2999.07 349C2995.07 359.333 2989.23 368.833 2981.57 377.5C2974.23 385.833 2965.07 393 2954.07 399C2943.4 404.667 2931.4 408.167 2918.07 409.5L3018.57 571H2958.57L2868.57 415H2815.07V571H2767.07V217ZM2815.07 373H2878.07C2887.4 373 2896.57 372.333 2905.57 371C2914.9 369.333 2923.07 366.5 2930.07 362.5C2937.4 358.5 2943.23 352.833 2947.57 345.5C2951.9 337.833 2954.07 328 2954.07 316C2954.07 304 2951.9 294.333 2947.57 287C2943.23 279.333 2937.4 273.5 2930.07 269.5C2923.07 265.5 2914.9 262.833 2905.57 261.5C2896.57 259.833 2887.4 259 2878.07 259H2815.07V373Z" fill="white"/>
<path d="M3183.73 217H3227.23L3378.73 571H3322.73L3287.23 483.5H3118.73L3083.73 571H3027.73L3183.73 217ZM3269.73 441.5L3203.73 279H3202.73L3135.73 441.5H3269.73Z" fill="white"/>
<path d="M3424.78 217H3472.78V526H3635.28V571H3424.78V217Z" fill="white"/>
</svg>
